<?xml version="1.0" standalone="no"?>
<!DOCTYPE svg PUBLIC "-//W3C//DTD SVG 20010904//EN"
 "http://www.w3.org/TR/2001/REC-SVG-20010904/DTD/svg10.dtd">
<svg version="1.0" xmlns="http://www.w3.org/2000/svg"
 width="700.000000pt" height="700.000000pt" viewBox="0 0 700.000000 700.000000"
 preserveAspectRatio="xMidYMid meet">
<metadata>
Created by potrace 1.11, written by Peter Selinger 2001-2013
</metadata>
<g transform="translate(0.000000,700.000000) scale(0.100000,-0.100000)"
fill="#000000" stroke="none">
<path d="M4080 6855 c-201 -55 -698 -348 -924 -545 -144 -125 -262 -242 -356
-350 -36 -41 -67 -77 -70 -80 -50 -48 -297 -404 -333 -480 -4 -8 -17 -31 -28
-50 -35 -57 -151 -292 -146 -296 2 -2 71 18 153 45 190 62 453 129 609 156 17
3 41 7 55 10 14 3 42 7 64 10 21 3 50 7 65 9 312 52 748 52 1086 0 32 -5 270
-53 295 -60 142 -36 300 -86 395 -124 272 -108 521 -238 752 -393 96 -65 257
-181 273 -197 3 -3 61 -52 130 -110 69 -57 172 -150 230 -207 98 -95 106 -101
125 -88 11 8 58 38 105 66 127 76 175 115 208 164 l30 45 -127 337 c-121 322
-128 338 -151 336 -142 -10 -207 -15 -220 -18 -8 -2 -57 -7 -109 -11 -72 -5
-95 -4 -101 7 -10 15 -195 272 -266 369 -50 68 -52 72 -43 113 6 23 31 76 56
117 121 195 122 237 15 335 -24 22 -89 87 -145 143 -175 178 -263 234 -366
234 -99 0 -191 -58 -297 -188 -34 -41 -36 -42 -62 -28 -15 8 -63 31 -107 50
-44 20 -109 50 -145 66 -74 35 -169 78 -218 99 -18 8 -34 23 -36 34 -46 245
-75 327 -145 406 -67 77 -151 101 -251 74z"/>
<path d="M2582 6784 c-16 -6 -91 -26 -167 -44 -258 -59 -334 -89 -402 -156
-82 -83 -91 -207 -28 -382 13 -37 21 -70 17 -74 -29 -29 -449 -318 -462 -318
-38 0 -117 32 -200 79 -155 90 -213 84 -311 -29 -30 -35 -81 -93 -114 -129
-169 -187 -208 -241 -229 -323 -14 -56 -8 -104 22 -168 17 -36 115 -140 167
-176 l30 -21 -59 -129 c-33 -71 -74 -160 -91 -199 -18 -38 -47 -100 -63 -137
-17 -38 -34 -68 -39 -69 -20 -2 -66 -11 -160 -34 -381 -91 -427 -222 -220
-630 116 -230 285 -488 430 -659 114 -134 355 -365 532 -507 147 -118 344
-246 465 -301 127 -58 248 -104 254 -97 2 2 -5 31 -16 64 -27 81 -89 276 -93
295 -2 8 -15 56 -29 105 -41 152 -89 394 -102 515 -3 25 -7 54 -9 65 -9 42
-18 236 -19 370 0 195 13 360 44 545 5 30 12 70 15 88 95 566 369 1178 731
1632 112 140 193 229 346 382 l116 116 -34 39 c-19 21 -52 76 -75 123 -50 103
-80 145 -120 165 -33 17 -85 17 -127 -1z"/>
<path d="M5030 4775 c0 -2 16 -51 35 -109 57 -174 134 -458 150 -559 3 -18 10
-52 15 -77 13 -60 18 -90 31 -190 6 -47 12 -96 15 -110 26 -155 25 -668 -1
-850 -3 -19 -10 -66 -16 -105 -25 -172 -116 -529 -163 -640 -7 -16 -28 -68
-46 -115 -97 -247 -249 -522 -454 -815 -94 -134 -299 -376 -457 -538 l-77 -78
38 -57 c21 -31 56 -88 78 -127 42 -73 99 -138 142 -160 22 -11 45 -7 193 36
214 62 321 108 374 160 45 44 78 104 87 159 3 19 8 46 11 60 2 13 7 77 10 143
2 65 7 122 10 127 3 5 58 46 123 91 167 118 305 217 319 229 20 17 48 11 74
-16 74 -80 195 -136 274 -127 94 10 165 67 316 253 51 63 104 126 117 140 44
46 81 112 88 156 8 58 -25 126 -105 214 -33 36 -72 87 -86 113 l-27 48 58 127
c32 70 75 165 96 211 22 45 50 107 63 137 l24 54 53 -6 c259 -29 390 31 428
194 17 71 7 201 -20 281 -21 64 -89 202 -135 276 -13 22 -32 54 -41 70 -31 57
-138 220 -183 280 -145 195 -428 499 -586 630 -33 28 -69 58 -80 68 -31 29
-233 179 -295 219 -137 89 -320 177 -407 196 -24 6 -43 8 -43 7z"/>
<path d="M510 2927 c-25 -18 -66 -43 -92 -57 -82 -43 -162 -104 -191 -148
l-28 -42 41 -147 c121 -426 183 -482 560 -508 30 -2 65 -4 77 -4 33 -1 323
-411 323 -457 0 -43 -29 -116 -79 -198 -88 -143 -81 -198 41 -308 45 -40 123
-112 173 -160 161 -155 230 -193 335 -185 77 5 128 31 197 99 27 26 53 53 58
60 6 7 19 25 30 39 l20 26 224 -103 c123 -57 243 -111 267 -121 35 -15 44 -24
51 -53 5 -19 8 -51 7 -70 -4 -88 -6 -168 -5 -200 3 -105 144 -199 301 -201 89
-2 125 10 307 100 379 188 663 391 958 686 127 127 142 144 239 264 155 193
307 456 395 686 l28 73 -146 -50 c-251 -84 -520 -155 -696 -182 -196 -30 -224
-33 -380 -42 -180 -10 -413 -5 -570 11 -27 3 -149 18 -155 20 -3 1 -30 5 -60
9 -30 4 -71 12 -90 16 -19 5 -46 11 -60 13 -93 17 -295 72 -450 124 -203 68
-503 204 -665 302 -37 23 -69 41 -71 41 -9 0 -159 104 -272 187 -150 112 -291
234 -443 387 -69 69 -128 126 -130 126 -2 0 -24 -15 -49 -33z"/>
</g>
</svg>
