<svg xmlns:dc="http://purl.org/dc/elements/1.1/" xmlns:cc="http://creativecommons.org/ns#" xmlns:rdf="http://www.w3.org/1999/02/22-rdf-syntax-ns#" xmlns:svg="http://www.w3.org/2000/svg" xmlns="http://www.w3.org/2000/svg" height="544.500004209578" width="544.5000099465251" xml:space="preserve" version="1.1"><rect id="backgroundrect" width="100%" height="100%" x="0" y="0" fill="none" stroke="none"/><metadata id="metadata8"><rdf:RDF><cc:Work rdf:about=""><dc:format>image/svg+xml</dc:format><dc:type rdf:resource="http://purl.org/dc/dcmitype/StillImage"/></cc:Work></rdf:RDF></metadata><defs id="defs6"/><g class="currentLayer" style=""><title>Layer 1</title><g id="g10" class=""><text id="text14" style="font-variant:normal;font-weight:normal;font-size:41.60400009px;font-family:Falco_Black;-inkscape-font-specification:Falco_Black;writing-mode:lr-tb;fill:#100f0d;fill-opacity:1;fill-rule:nonzero;stroke:none" transform="matrix(1.3199003207520843,0,0,1.3045334489845635,308.0998589092774,914.100247252029) " stroke-width="0" y="-223.25989435280968" x="-392.0750619297725"><tspan id="tspan12" y="-223.25989435280968" x="-392.0750619297725">SEMANA DA ENGENHARIA ELeTRICA</tspan></text>
<g id="g16" stroke-width="0"><path id="path18" style="fill:#100f0d;fill-opacity:1;fill-rule:evenodd;stroke:none" d="m274.1168315698752,31.572026939914394 c135.34508670052816,0 245.06496862381496,107.75028837908819 245.06496862381496,240.66802741602126 c0,132.9153908767249 -109.7198819232868,240.66711424260697 -245.06496862381496,240.66711424260697 c-135.34508670052816,0 -245.06496862381496,-107.75172336588207 -245.06496862381496,-240.66711424260697 c0,-132.91773903693309 109.7198819232868,-240.66802741602126 245.06496862381496,-240.66802741602126 " stroke-width="0"/><path id="path20" style="fill:#f2aa0e;fill-opacity:1;fill-rule:evenodd;stroke:#f2aa0e;stroke-width:0.28349999;stroke-linecap:butt;stroke-linejoin:miter;stroke-miterlimit:22.92558479;stroke-dasharray:none;stroke-opacity:1" d="m27.504411810010538,223.89639289677575 c23.50782068269085,12.227000657297618 44.76560728859562,28.10943449199488 63.00267002042717,46.878931302639884 l-53.939442477950905,25.597816242664898 c2.437591912364949,27.031628956443832 7.159667299887607,49.53991863187859 17.89243675808318,71.52652538106443 c23.548605602602088,2.5360130248259907 51.99826507622081,5.599709829766239 75.5468706788229,8.135722854592231 l-0.11298346745637852,11.48824336513766 l-59.548094910922735,28.373472062069357 c-40.63181147403216,-54.74657253346578 -56.63283107247761,-124.6677390522098 -42.84145660100323,-192.00071120816844 zm87.42227784469355,76.2863765763744 c8.834752796954076,12.513606656039526 16.509973162127444,25.8852049614762 22.867801017158158,39.96673036985027 l-64.48834982146572,-6.694604753498982 v-13.540274480390378 z" stroke-width="0"/><path id="path22" style="fill:#ffffff;fill-opacity:1;fill-rule:evenodd;stroke:none" d="M166.0865540471832,56.15817749289181 L513.639142776756,221.10743083619172 C502.60042042421003,162.58279898112175 467.60590322011,118.64115519221554 422.6242282490073,80.77994180902641 C340.20912426111886,22.011884012375788 254.4738110163786,17.450191447966574 166.0865540471832,56.15817749289181 zM298.94547650354264,145.8379380833008 L29.051862946060282,272.2400543559355 c4.2016386910501105,-84.6343470231164 32.87422932884386,-156.31728596471407 111.2852837036988,-201.67747942604612 zM119.673843148321,460.30837993548505 c110.40464620969298,71.02349728313598 223.8071820179102,84.16145364785952 343.97988254136106,-33.33383004848826 l-136.8723433616704,-64.95976490556593 zm216.46008887247578,-161.45023372643365 l134.69331992214077,63.92579169390077 v41.021054303319595 l-134.69331992214077,-63.92579169390077 zm0,-67.68506573383958 l134.63801609870126,64.11586221741781 V336.3096056359144 L336.1339320207967,272.1941347785314 zm0,-67.68545709387426 l134.69331992214077,63.92579169390077 V268.43486073859253 L336.1339320207967,204.50906904469184 zM317.4289646252586,298.85814620905137 L182.73564470311794,362.78393790295206 v41.021054303319595 l134.69331992214077,-63.92579169390077 zm0,-67.68506573383958 l-134.63801609870126,64.11586221741781 V336.3096056359144 L317.4289646252586,272.1941347785314 zm0,-67.68545709387426 l-134.69331992214077,63.92579169390077 v41.021445663354285 l134.69331992214077,-63.92579169390077 zm-153.40053114822422,113.41652941475263 l-90.72229262663792,43.01046781302105 v13.540274480390378 l90.72229262663792,9.418079234944056 v69.40613671308492 l-73.37471072096119,34.933970777012725 c-9.685164573614644,-9.188220441232977 -17.594139285593208,-19.086367985403353 -24.638975257575385,-29.252597153340055 l63.87921582343863,-30.43685261832824 l0.11298346745637852,-11.48824336513766 c-23.548605602602088,-2.5360130248259907 -51.99826507622081,-5.599709829766239 -75.5468706788229,-8.135722854592231 c-10.732769458195575,-21.98660674918583 -15.45484484571823,-44.49489642462059 -17.89243675808318,-71.52652538106443 l127.46079412454765,-60.48899832255093 z" stroke-width="0"/><path id="path24" style="fill:none;stroke:#100f0d;stroke-width:14.17319965;stroke-linecap:butt;stroke-linejoin:miter;stroke-miterlimit:22.92558479;stroke-dasharray:none;stroke-opacity:1" d="M393.27901640775826,59.7529498649136 C512.013949511814,124.79777035135328 554.9178373979885,272.66194047333715 489.10681546509727,390.0145082103661 C423.295925522238,507.36707594739494 273.69023978620817,549.7706747999483 154.95530668215247,484.7262456735433 C36.22050556812894,419.68155564044855 -6.684306248270332,271.8176464251544 59.12671568462099,154.46481778143578 C124.93773761751243,37.11225004440689 274.54408330370256,-5.291479261491418 393.27901640775826,59.7529498649136 z" stroke-width="0"/><path id="path26" style="fill:#f2aa0e;fill-opacity:1;fill-rule:evenodd;stroke:none" d="m334.90378492185573,136.27962150259089 l-1.9601839663489202,-0.9078248271483584 l-7.960978784616196,-3.800627750271627 l0.11219152726392731,0.05322496471857031 zm-1.897356711081121,-3.2156749517469483 l-0.7609225349135775,-15.526296203124478 c0.17884649346190767,-2.567060920911824 1.0299182202828514,-3.1701467343773877 1.6476315703948279,-4.942616331512714 c3.573498128404193,0.5476431418837199 3.7680514356830503,2.427345388525577 5.1315084670199544,5.5886212954498715 c13.155974457064325,30.506514704504017 25.306316859747636,72.27976299450812 34.72802932934017,104.5290039335106 c1.4232485158669725,4.8716497118879545 3.873247491246991,12.047366401372443 4.8134124897187025,16.303276325339684 c-0.2008888288184673,-3.2045864174305803 -1.9422333219866919,-8.965145221456615 -2.7641352517190145,-12.680065124129957 c-6.262135081776188,-28.30146181568541 -15.773204803083633,-58.37708912198982 -25.20877622604406,-85.74633133503086 c-2.679661631190882,-7.771888475670435 -4.946986402178813,-16.370851157997084 -6.9614182717106425,-24.528098814497557 c-0.39768596664260353,-1.6118815295653266 -1.2652564474729482,-4.679622388197426 -0.8504117766605684,-6.327378587609828 c0.3554491563785363,-1.4104615650421102 0.8960803277585909,-1.420767379289088 1.355141659316165,-2.656291008822368 c0.3554491563785363,-0.9558316580709899 0.391746415199219,-2.3884702917458376 0.7625064152984798,-3.318080827492237 l15.348988839993913,-16.5890996040122 c2.270228551693585,-2.0275058864118085 7.029393138229376,-8.025228871463236 9.39359859276051,-10.428049031147905 l7.5236958083510315,-8.655970794047274 c0.7973517837663339,-0.8598179962257266 1.0304461804111524,-1.3985903106563504 1.8235742831510802,-2.238448945112612 c1.2052009828787282,-1.2760946197966998 2.68190546173616,-2.876104894976267 3.157465547303136,-4.9736642275985465 c-1.7633868285247851,0.8118111653030946 -3.331428409578261,2.3685109299763734 -4.939858940446751,3.622819841175031 l-26.088753769889472,20.91010574708377 c-1.081658312856333,0.8154638589602502 -1.2994418657804274,1.301272115362102 -2.2844834751577077,2.145566163544912 c-3.5431404210268957,3.037867042650353 -5.046902856459744,4.8916090736574205 -7.14963605744989,10.266417336818717 c-2.6114227846079987,6.676602191902996 -7.261035644521367,1.7339858603902822 -12.398747643048855,-2.6114150581772986 l-9.145985292587417,-8.239302810441604 c-0.9395050483113335,-0.8090716450602267 -1.563949890059145,-1.0493667063631829 -2.489200014906356,-1.9908484964953423 l-25.239397913485504,-22.12266958791492 c-1.1104321398487285,-0.8945185859687153 -1.1587404915882549,-0.9366550163709171 -2.3949591320046566,-2.0611628493956102 l-9.36139302493416,-7.662829479335326 c-1.456905974046151,-1.2783123266599736 -3.336708010861269,-2.5837589490588266 -4.717323746367949,-3.793713722992008 l-19.158089175652353,-15.2707381004684 c-3.6800140842888878,-2.8111391292168357 -21.725427289547234,-17.863759237015017 -25.21841149838555,-18.139668061475255 l12.440324503152546,10.65660329141 c1.1613802922297591,1.128551886716546 1.7083469851494226,1.363759267568463 3.035770737729794,2.629939433152882 c4.316206038891391,4.116063938236095 13.026228255534395,10.920249501449781 18.877082397364234,16.34684774253577 l27.737309270508828,25.725921427355186 c6.299884230949698,5.9913307711514046 10.782397710255852,11.240773369865288 17.574736750878152,17.64485852427541 c3.3979513857441654,3.203412337326494 1.2727798793012348,1.8160410143314116 6.1804332519216345,5.5686619336804055 c2.1349387688164967,1.6326236114041823 4.339700264600778,3.5528968483094583 6.807913864407175,4.942877238202511 c2.8596960349414657,1.6108379028061388 5.3405806778270835,2.6639877561713767 6.648997865788624,5.7883453664894065 c-1.3084171879615414,-3.1243576103180293 -3.789301830847159,-4.177507463683268 -6.648997865788624,-5.7883453664894065 c-2.468213599806398,-1.3899803898930532 -4.67297509559068,-3.3102536267983296 -6.807913864407175,-4.942877238202511 c-4.907653372620399,-3.7526209193489954 -2.7824818661774686,-2.365249596353912 -6.1804332519216345,-5.5686619336804055 c-6.792339040622301,-6.4040851544101205 -11.274852519928453,-11.653527753124003 -17.574736750878152,-17.64485852427541 l-27.737309270508828,-25.725921427355186 c-5.8508541418298385,-5.426598241085987 -14.560876358472845,-12.230783804299673 -18.877082397364234,-16.34684774253577 c-1.3274237525803714,-1.2661801655844171 -1.874390445500035,-1.5013875464363338 -3.035770737729794,-2.629939433152882 l-12.440324503152546,-10.65660329141 c3.4929842088383154,0.2759088244602353 21.538397414096664,15.328528932258417 25.21841149838555,18.139668061475255 l19.158089175652353,15.2707381004684 c1.3806157355066802,1.2099547739331826 3.260417772321799,2.5154013963320354 4.717323746367949,3.793713722992008 l9.36139302493416,7.662829479335326 c1.2362186404164024,1.1245078330246938 1.2845269921559286,1.1666442634268952 2.3949591320046566,2.0611628493956102 l25.239397913485504,22.12266958791492 c0.9252501248472111,0.9414817901321595 1.5496949665950228,1.1817768514351161 2.489200014906356,1.9908484964953423 l9.145985292587417,8.239302810441604 c5.1377119985274895,4.345400918567581 9.787324858440856,9.288017250080294 12.398747643048855,2.6114150581772986 c2.1027332009901456,-5.3748082631613014 3.6064956364229968,-7.2285502941683655 7.14963605744989,-10.266417336818717 c0.9850416093772802,-0.8442940481828096 1.2028251623013744,-1.3301023045846616 2.2844834751577077,-2.145566163544912 l26.088753769889472,-20.91010574708377 c1.6084305308684903,-1.2543089111986578 3.176472111921966,-2.8110086758719373 4.939858940446751,-3.622819841175031 c-0.4755600855669763,2.0975593326222794 -1.9522645644244077,3.6975696078018463 -3.157465547303136,4.9736642275985465 c-0.7931281027399275,0.8398586344562626 -1.0262224993847455,1.3786309488868866 -1.8235742831510802,2.238448945112612 l-7.5236958083510315,8.655970794047274 c-2.3642054545311337,2.4028201596846674 -7.1233700410669245,8.400543144736096 -9.39359859276051,10.428049031147905 l-15.348988839993913,16.5890996040122 c-0.3707600000992609,0.9296105357464001 -0.40705725891994315,2.3622491694212475 -0.7625064152984798,3.318080827492237 c-0.45906133155757506,1.2355236295332799 -0.9996925029376285,1.2458294437802582 -1.355141659316165,2.656291008822368 c-0.41484467081238047,1.6477561994124021 0.4527258100179653,4.715497058044502 0.8504117766605684,6.327378587609828 c2.014431869531831,8.157247656500475 4.281756640519762,16.756210338827124 6.9614182717106425,24.528098814497557 c9.435571422960425,27.369242213041037 18.946641144267872,57.44486951934545 25.20877622604406,85.74633133503086 c0.8219019297323226,3.7149199026733415 2.563246422900548,9.475478706699377 2.7641352517190145,12.680065124129957 c-0.9401649984717098,-4.2559099239672395 -3.3901639738517293,-11.431626613451728 -4.8134124897187025,-16.303276325339684 c-9.42171246959253,-32.2492409390025 -21.572054872275835,-74.0224892290066 -34.72802932934017,-104.5290039335106 c-1.363457031336903,-3.161275906924293 -1.5580103386157604,-5.040978153566151 -5.1315084670199544,-5.5886212954498715 c-0.6177133501119758,1.7724695971353264 -1.4687850769329194,2.37555541060089 -1.6476315703948279,4.942616331512714 zm-8.144708909264887,-1.5504380041181538 c-1.6263811752307187,-0.7717619884192678 -2.422941018804601,-1.1492939685554004 0,0 zm-1.675745447226848,-0.7951131371560917 c0.152580477078941,-3.315471760594268 0.22702285516935866,-6.6665572843458145 0.2408818085372554,-9.985812191942138 c-5.552688659371944,1.0986780707347994 -5.531702244271985,1.6434512390307536 -10.3844477635491,-1.3992425773808435 c-3.9149563413827573,-2.4550014976440506 -1.4889795518404263,-5.88005406795302 -0.23454628699764557,-9.411426114354235 c1.155044770690149,-3.2512887149042276 1.4838319405894933,-8.075192502559347 6.2287416036611605,-6.606679199037423 c5.392584750464716,1.6691505479757494 -0.43358725536706033,3.4245307569293777 8.82617344486919,1.0136224898610058 c-0.7973517837663339,-1.0458444660509245 -10.138286353728834,-6.968426324440843 -13.653708868019937,-9.90701837162347 l-29.48155754438271,-29.209678002868458 l-55.81383292345094,-49.24744223261625 v-2.243797532253449 h3.060980833856159 l2.0065124676073185,1.0457140127060263 c5.725463611358389,2.675076290487746 45.69917278546357,35.16839543779525 52.43858382322371,40.720098436638864 c1.1640200928712632,0.9588320850036545 2.0488812679034605,1.6602797205226538 3.1533738563088045,2.5274031040626928 l3.2909074697311715,2.7827003000289716 c1.4499105023461647,1.336755425174482 2.061156340886455,1.680369535637016 3.2375834967727877,2.8310984909863 l22.244016125570724,19.462725885435397 c4.328877081970611,3.325908028186144 16.193725045275247,15.385537043979044 20.1065695461448,16.18612922162087 c3.636985333832369,-3.398440087949686 1.2780594805842433,-5.832047237030389 8.714113907637335,-12.941624080651362 l33.496826310142616,-26.896870651163727 c1.6261171951665676,-1.0631947609224193 1.9410454116980165,-1.06058569402445 3.3961035252951133,0.11532075689023553 v2.4857884870400855 c-2.910380207258346,3.754055906142878 -2.192486422801288,3.826848872596217 -7.141188695397077,9.012760692344552 L361.7789353028494,88.29248903503873 c-2.8434612609962153,3.599599145783106 -8.469800358266124,9.299105784396664 -12.015316599870372,12.67302064350544 c-1.493863183027209,1.4219414593931743 -2.8913736426395156,2.1489579505122713 -3.4065307378290544,4.707800310695492 c-1.3769200146085743,6.8433215666832234 -3.2187089221860328,1.0021425955099417 -0.07114262728853747,13.021461527729217 c2.2995303388142814,8.779901471700807 4.53992914325887,16.947063582413566 7.395797467270154,25.265812479898326 c2.8222108658321066,8.22116979550072 5.497648815996582,16.27809882977428 8.315767990834358,24.381338801486798 c3.5629389258381767,10.244631628220676 21.115237371263543,73.9029939650796 19.089982319101544,77.8571653022967 c-2.1569811041730564,0.34726680411969113 -2.1382385196183766,-0.5065503382407062 -2.751860178736021,-2.247189319220809 c-0.4788598363688566,-1.3582802270827274 -1.0037841939319603,-2.678337624110207 -1.5007266646951198,-4.153504048221951 l-7.562500877781143,-25.936603579366196 c-4.0633131374352915,-14.293773000523863 -27.73612136022015,-91.615949135392 -34.193865669531796,-98.95225389244649 c-1.5908758566024883,1.781340424588422 -0.6806725954118505,14.865550011213797 -0.1871618654826457,21.210017987005322 l0.011879102886768791,0.16006625419040627 l-9.808971223701189,-4.655227612701415 l0.007919401924512516,-0.035483309812380126 l5.760044999762096,-26.357837430043308 c-2.150249612537221,0.4651966279078956 -5.172557366995343,1.9787163354197856 -7.362403989155126,2.3751640505661946 c-2.5401481672873865,0.4595871340772618 -3.0803833685712148,-2.7911797674473724 -6.629859311137719,-2.5797148953669744 c-0.41986029203123826,0.1978977242109583 -5.242512083995203,10.838585707543347 -3.4601186908515893,12.28257378222436 c10.189102516077789,8.255609478553911 12.653884375050232,-9.211049776590205 11.453303043294136,14.169190056145835 l-0.001319900320752087,0.03522240312258322 l-1.675745447226848,-0.7951131371560917 zm1.675745447226848,0.7951131371560917 l0.2330943966448182,0.11088534316368802 zm0,0 l0.0013199003207520865,-0.03522240312258322 c1.200581331756096,-23.380239832736038 -1.2642005272163463,-5.913580577591924 -11.453303043294136,-14.169190056145835 c-1.7823933931436147,-1.4439880746810134 3.040258398820351,-12.084676058013402 3.4601186908515893,-12.28257378222436 c3.549475942566505,-0.21146487208039788 4.089711143850333,3.0393020294442357 6.629859311137719,2.5797148953669744 c2.189846622159783,-0.39644771514640936 5.212154376617907,-1.9099674226582994 7.362403989155126,-2.3751640505661946 l-5.760044999762096,26.357837430043308 l-0.007919401924512516,0.035483309812380126 l-0.2330943966448182,-0.11088534316368802 z" stroke-width="0"/></g><path id="path28" style="fill:#100f0d;fill-opacity:1;fill-rule:nonzero;stroke:none" d="m692.5545350354068,579.2573052540363 l3.509482962847717,-7.426056658344627 h6.362315516121272 l-5.868804786192068,7.426056658344627 z" stroke-width="0"/></g></g></svg>